<mxfile host="app.diagrams.net" modified="2023-06-24T21:18:15.767Z" agent="Mozilla/5.0 (Windows NT 10.0; Win64; x64) AppleWebKit/537.36 (KHTML, like Gecko) Chrome/114.0.0.0 Safari/537.36" etag="x-fFtj8uaDlqYi_2RflH" version="21.5.0" type="device">
  <diagram name="Сторінка-1" id="ITKw7NCCRJyn4J1QFD3Z">
    <mxGraphModel dx="1050" dy="549" grid="1" gridSize="10" guides="1" tooltips="1" connect="1" arrows="1" fold="1" page="1" pageScale="1" pageWidth="827" pageHeight="1169" math="0" shadow="0">
      <root>
        <mxCell id="0" />
        <mxCell id="1" parent="0" />
        <mxCell id="rjGoQQl5afYNW5GgnNFJ-7" value="UserDict" style="rounded=0;whiteSpace=wrap;html=1;labelBackgroundColor=none;" vertex="1" parent="1">
          <mxGeometry x="620" y="10" width="144" height="30" as="geometry" />
        </mxCell>
        <mxCell id="rjGoQQl5afYNW5GgnNFJ-9" value="" style="endArrow=none;html=1;rounded=0;labelBackgroundColor=none;fontColor=default;" edge="1" parent="1">
          <mxGeometry width="50" height="50" relative="1" as="geometry">
            <mxPoint x="110" y="110" as="sourcePoint" />
            <mxPoint x="540" y="110" as="targetPoint" />
            <Array as="points" />
          </mxGeometry>
        </mxCell>
        <mxCell id="rjGoQQl5afYNW5GgnNFJ-10" value="" style="endArrow=none;html=1;rounded=0;exitX=0.5;exitY=0;exitDx=0;exitDy=0;labelBackgroundColor=none;fontColor=default;" edge="1" parent="1">
          <mxGeometry width="50" height="50" relative="1" as="geometry">
            <mxPoint x="540" y="140" as="sourcePoint" />
            <mxPoint x="540" y="110" as="targetPoint" />
          </mxGeometry>
        </mxCell>
        <mxCell id="rjGoQQl5afYNW5GgnNFJ-11" value="" style="endArrow=none;html=1;rounded=0;exitX=0.5;exitY=0;exitDx=0;exitDy=0;labelBackgroundColor=none;fontColor=default;" edge="1" parent="1">
          <mxGeometry width="50" height="50" relative="1" as="geometry">
            <mxPoint x="110" y="140" as="sourcePoint" />
            <mxPoint x="110" y="110" as="targetPoint" />
          </mxGeometry>
        </mxCell>
        <mxCell id="rjGoQQl5afYNW5GgnNFJ-12" value="" style="endArrow=none;html=1;rounded=0;labelBackgroundColor=none;fontColor=default;" edge="1" parent="1">
          <mxGeometry width="50" height="50" relative="1" as="geometry">
            <mxPoint x="250" y="140" as="sourcePoint" />
            <mxPoint x="250" y="110" as="targetPoint" />
          </mxGeometry>
        </mxCell>
        <mxCell id="rjGoQQl5afYNW5GgnNFJ-14" value="" style="endArrow=none;html=1;rounded=0;entryX=0.5;entryY=0;entryDx=0;entryDy=0;labelBackgroundColor=none;fontColor=default;" edge="1" parent="1">
          <mxGeometry width="50" height="50" relative="1" as="geometry">
            <mxPoint x="400" y="110" as="sourcePoint" />
            <mxPoint x="400" y="140" as="targetPoint" />
          </mxGeometry>
        </mxCell>
        <mxCell id="rjGoQQl5afYNW5GgnNFJ-16" value="" style="endArrow=none;html=1;rounded=0;labelBackgroundColor=none;fontColor=default;" edge="1" parent="1">
          <mxGeometry width="50" height="50" relative="1" as="geometry">
            <mxPoint x="110" y="240" as="sourcePoint" />
            <mxPoint x="540" y="240" as="targetPoint" />
          </mxGeometry>
        </mxCell>
        <mxCell id="rjGoQQl5afYNW5GgnNFJ-17" value="" style="endArrow=none;html=1;rounded=0;labelBackgroundColor=none;fontColor=default;" edge="1" parent="1">
          <mxGeometry width="50" height="50" relative="1" as="geometry">
            <mxPoint x="110" y="220" as="sourcePoint" />
            <mxPoint x="110" y="240" as="targetPoint" />
          </mxGeometry>
        </mxCell>
        <mxCell id="rjGoQQl5afYNW5GgnNFJ-18" value="" style="endArrow=none;html=1;rounded=0;labelBackgroundColor=none;fontColor=default;" edge="1" parent="1">
          <mxGeometry width="50" height="50" relative="1" as="geometry">
            <mxPoint x="540" y="240" as="sourcePoint" />
            <mxPoint x="540" y="220" as="targetPoint" />
          </mxGeometry>
        </mxCell>
        <mxCell id="rjGoQQl5afYNW5GgnNFJ-19" value="" style="endArrow=none;html=1;rounded=0;labelBackgroundColor=none;fontColor=default;" edge="1" parent="1">
          <mxGeometry width="50" height="50" relative="1" as="geometry">
            <mxPoint x="400" y="240" as="sourcePoint" />
            <mxPoint x="400" y="220" as="targetPoint" />
          </mxGeometry>
        </mxCell>
        <mxCell id="rjGoQQl5afYNW5GgnNFJ-20" value="" style="endArrow=none;html=1;rounded=0;labelBackgroundColor=none;fontColor=default;" edge="1" parent="1">
          <mxGeometry width="50" height="50" relative="1" as="geometry">
            <mxPoint x="250" y="240" as="sourcePoint" />
            <mxPoint x="250" y="220" as="targetPoint" />
          </mxGeometry>
        </mxCell>
        <mxCell id="rjGoQQl5afYNW5GgnNFJ-22" value="Field" style="swimlane;fontStyle=0;childLayout=stackLayout;horizontal=1;startSize=26;fillColor=none;horizontalStack=0;resizeParent=1;resizeParentMax=0;resizeLast=0;collapsible=1;marginBottom=0;html=1;labelBackgroundColor=none;" vertex="1" parent="1">
          <mxGeometry x="230" y="10" width="140" height="78" as="geometry" />
        </mxCell>
        <mxCell id="rjGoQQl5afYNW5GgnNFJ-23" value="+ value" style="text;fillColor=none;align=left;verticalAlign=top;spacingLeft=4;spacingRight=4;overflow=hidden;rotatable=0;points=[[0,0.5],[1,0.5]];portConstraint=eastwest;whiteSpace=wrap;html=1;strokeWidth=1;labelBackgroundColor=none;" vertex="1" parent="rjGoQQl5afYNW5GgnNFJ-22">
          <mxGeometry y="26" width="140" height="26" as="geometry" />
        </mxCell>
        <mxCell id="rjGoQQl5afYNW5GgnNFJ-24" value="+ value()" style="text;strokeColor=none;fillColor=none;align=left;verticalAlign=top;spacingLeft=4;spacingRight=4;overflow=hidden;rotatable=0;points=[[0,0.5],[1,0.5]];portConstraint=eastwest;whiteSpace=wrap;html=1;strokeWidth=1;labelBackgroundColor=none;" vertex="1" parent="rjGoQQl5afYNW5GgnNFJ-22">
          <mxGeometry y="52" width="140" height="26" as="geometry" />
        </mxCell>
        <mxCell id="rjGoQQl5afYNW5GgnNFJ-27" value="Name" style="swimlane;fontStyle=0;childLayout=stackLayout;horizontal=1;startSize=26;fillColor=none;horizontalStack=0;resizeParent=1;resizeParentMax=0;resizeLast=0;collapsible=1;marginBottom=0;html=1;labelBackgroundColor=none;" vertex="1" parent="1">
          <mxGeometry x="50" y="140" width="110" height="78" as="geometry" />
        </mxCell>
        <mxCell id="rjGoQQl5afYNW5GgnNFJ-28" value="+ name" style="text;fillColor=none;align=left;verticalAlign=top;spacingLeft=4;spacingRight=4;overflow=hidden;rotatable=0;points=[[0,0.5],[1,0.5]];portConstraint=eastwest;whiteSpace=wrap;html=1;labelBackgroundColor=none;" vertex="1" parent="rjGoQQl5afYNW5GgnNFJ-27">
          <mxGeometry y="26" width="110" height="26" as="geometry" />
        </mxCell>
        <mxCell id="rjGoQQl5afYNW5GgnNFJ-29" value="+ value()" style="text;strokeColor=none;fillColor=none;align=left;verticalAlign=top;spacingLeft=4;spacingRight=4;overflow=hidden;rotatable=0;points=[[0,0.5],[1,0.5]];portConstraint=eastwest;whiteSpace=wrap;html=1;labelBackgroundColor=none;" vertex="1" parent="rjGoQQl5afYNW5GgnNFJ-27">
          <mxGeometry y="52" width="110" height="26" as="geometry" />
        </mxCell>
        <mxCell id="rjGoQQl5afYNW5GgnNFJ-31" value="Phone" style="swimlane;fontStyle=0;childLayout=stackLayout;horizontal=1;startSize=26;fillColor=none;horizontalStack=0;resizeParent=1;resizeParentMax=0;resizeLast=0;collapsible=1;marginBottom=0;html=1;labelBackgroundColor=none;" vertex="1" parent="1">
          <mxGeometry x="190" y="140" width="120" height="78" as="geometry" />
        </mxCell>
        <mxCell id="rjGoQQl5afYNW5GgnNFJ-32" value="+ phone" style="text;fillColor=none;align=left;verticalAlign=top;spacingLeft=4;spacingRight=4;overflow=hidden;rotatable=0;points=[[0,0.5],[1,0.5]];portConstraint=eastwest;whiteSpace=wrap;html=1;labelBackgroundColor=none;" vertex="1" parent="rjGoQQl5afYNW5GgnNFJ-31">
          <mxGeometry y="26" width="120" height="26" as="geometry" />
        </mxCell>
        <mxCell id="rjGoQQl5afYNW5GgnNFJ-33" value="+ value()" style="text;strokeColor=none;fillColor=none;align=left;verticalAlign=top;spacingLeft=4;spacingRight=4;overflow=hidden;rotatable=0;points=[[0,0.5],[1,0.5]];portConstraint=eastwest;whiteSpace=wrap;html=1;labelBackgroundColor=none;" vertex="1" parent="rjGoQQl5afYNW5GgnNFJ-31">
          <mxGeometry y="52" width="120" height="26" as="geometry" />
        </mxCell>
        <mxCell id="rjGoQQl5afYNW5GgnNFJ-35" value="Email" style="swimlane;fontStyle=0;childLayout=stackLayout;horizontal=1;startSize=26;fillColor=none;horizontalStack=0;resizeParent=1;resizeParentMax=0;resizeLast=0;collapsible=1;marginBottom=0;html=1;labelBackgroundColor=none;" vertex="1" parent="1">
          <mxGeometry x="340" y="140" width="120" height="78" as="geometry" />
        </mxCell>
        <mxCell id="rjGoQQl5afYNW5GgnNFJ-36" value="+ phone" style="text;fillColor=none;align=left;verticalAlign=top;spacingLeft=4;spacingRight=4;overflow=hidden;rotatable=0;points=[[0,0.5],[1,0.5]];portConstraint=eastwest;whiteSpace=wrap;html=1;labelBackgroundColor=none;" vertex="1" parent="rjGoQQl5afYNW5GgnNFJ-35">
          <mxGeometry y="26" width="120" height="26" as="geometry" />
        </mxCell>
        <mxCell id="rjGoQQl5afYNW5GgnNFJ-37" value="+ value()" style="text;strokeColor=none;fillColor=none;align=left;verticalAlign=top;spacingLeft=4;spacingRight=4;overflow=hidden;rotatable=0;points=[[0,0.5],[1,0.5]];portConstraint=eastwest;whiteSpace=wrap;html=1;labelBackgroundColor=none;" vertex="1" parent="rjGoQQl5afYNW5GgnNFJ-35">
          <mxGeometry y="52" width="120" height="26" as="geometry" />
        </mxCell>
        <mxCell id="rjGoQQl5afYNW5GgnNFJ-38" value="Birthday" style="swimlane;fontStyle=0;childLayout=stackLayout;horizontal=1;startSize=26;fillColor=none;horizontalStack=0;resizeParent=1;resizeParentMax=0;resizeLast=0;collapsible=1;marginBottom=0;html=1;labelBackgroundColor=none;" vertex="1" parent="1">
          <mxGeometry x="480" y="140" width="120" height="78" as="geometry" />
        </mxCell>
        <mxCell id="rjGoQQl5afYNW5GgnNFJ-39" value="+ birthday" style="text;fillColor=none;align=left;verticalAlign=top;spacingLeft=4;spacingRight=4;overflow=hidden;rotatable=0;points=[[0,0.5],[1,0.5]];portConstraint=eastwest;whiteSpace=wrap;html=1;labelBackgroundColor=none;" vertex="1" parent="rjGoQQl5afYNW5GgnNFJ-38">
          <mxGeometry y="26" width="120" height="26" as="geometry" />
        </mxCell>
        <mxCell id="rjGoQQl5afYNW5GgnNFJ-40" value="+ value()" style="text;strokeColor=none;fillColor=none;align=left;verticalAlign=top;spacingLeft=4;spacingRight=4;overflow=hidden;rotatable=0;points=[[0,0.5],[1,0.5]];portConstraint=eastwest;whiteSpace=wrap;html=1;labelBackgroundColor=none;" vertex="1" parent="rjGoQQl5afYNW5GgnNFJ-38">
          <mxGeometry y="52" width="120" height="26" as="geometry" />
        </mxCell>
        <mxCell id="rjGoQQl5afYNW5GgnNFJ-45" value="Record" style="swimlane;fontStyle=0;childLayout=stackLayout;horizontal=1;startSize=26;fillColor=none;horizontalStack=0;resizeParent=1;resizeParentMax=0;resizeLast=0;collapsible=1;marginBottom=0;html=1;labelBackgroundColor=none;" vertex="1" parent="1">
          <mxGeometry x="140" y="290" width="130" height="540" as="geometry" />
        </mxCell>
        <mxCell id="rjGoQQl5afYNW5GgnNFJ-46" value="+ name" style="text;fillColor=none;align=left;verticalAlign=top;spacingLeft=4;spacingRight=4;overflow=hidden;rotatable=0;points=[[0,0.5],[1,0.5]];portConstraint=eastwest;whiteSpace=wrap;html=1;labelBackgroundColor=none;" vertex="1" parent="rjGoQQl5afYNW5GgnNFJ-45">
          <mxGeometry y="26" width="130" height="26" as="geometry" />
        </mxCell>
        <mxCell id="rjGoQQl5afYNW5GgnNFJ-47" value="+ phone" style="text;strokeColor=none;fillColor=none;align=left;verticalAlign=top;spacingLeft=4;spacingRight=4;overflow=hidden;rotatable=0;points=[[0,0.5],[1,0.5]];portConstraint=eastwest;whiteSpace=wrap;html=1;labelBackgroundColor=none;" vertex="1" parent="rjGoQQl5afYNW5GgnNFJ-45">
          <mxGeometry y="52" width="130" height="26" as="geometry" />
        </mxCell>
        <mxCell id="rjGoQQl5afYNW5GgnNFJ-48" value="+ email&lt;br&gt;&lt;br&gt;+ birthday&lt;br&gt;&lt;br&gt;+ add_phone()&lt;br&gt;&lt;br&gt;+ add_email()&lt;br&gt;&lt;br&gt;+ add_birthday()&lt;br&gt;&lt;br&gt;+ create_phone()&lt;br&gt;&lt;br&gt;+ create_email()&lt;br&gt;&lt;br&gt;+ create_birthday()&lt;br&gt;&lt;br&gt;+ edite_phone()&lt;br&gt;&lt;br&gt;+ edit_email()&lt;br&gt;&lt;br&gt;+ get_phone()&lt;br&gt;&lt;br&gt;+ get_email()&lt;br&gt;&lt;br&gt;+ get_name()&lt;br&gt;&lt;br&gt;+ get_birthday()&lt;br&gt;&lt;br&gt;+ days_to_birthday()&lt;br&gt;&lt;br&gt;+ show()&lt;br&gt;&lt;br&gt;" style="text;fillColor=none;align=left;verticalAlign=top;spacingLeft=4;spacingRight=4;overflow=hidden;rotatable=0;points=[[0,0.5],[1,0.5]];portConstraint=eastwest;whiteSpace=wrap;html=1;labelBackgroundColor=none;" vertex="1" parent="rjGoQQl5afYNW5GgnNFJ-45">
          <mxGeometry y="78" width="130" height="462" as="geometry" />
        </mxCell>
        <mxCell id="rjGoQQl5afYNW5GgnNFJ-57" value="" style="endArrow=none;html=1;rounded=0;entryX=-0.003;entryY=0.07;entryDx=0;entryDy=0;entryPerimeter=0;labelBackgroundColor=none;fontColor=default;" edge="1" parent="rjGoQQl5afYNW5GgnNFJ-45" target="rjGoQQl5afYNW5GgnNFJ-48">
          <mxGeometry width="50" height="50" relative="1" as="geometry">
            <mxPoint x="130" y="110" as="sourcePoint" />
            <mxPoint x="290" y="100" as="targetPoint" />
            <Array as="points">
              <mxPoint x="60" y="110" />
            </Array>
          </mxGeometry>
        </mxCell>
        <mxCell id="rjGoQQl5afYNW5GgnNFJ-58" value="" style="endArrow=none;html=1;rounded=0;exitX=0.003;exitY=0.126;exitDx=0;exitDy=0;exitPerimeter=0;labelBackgroundColor=none;fontColor=default;" edge="1" parent="rjGoQQl5afYNW5GgnNFJ-45" source="rjGoQQl5afYNW5GgnNFJ-48">
          <mxGeometry width="50" height="50" relative="1" as="geometry">
            <mxPoint x="240" y="270" as="sourcePoint" />
            <mxPoint x="130" y="136" as="targetPoint" />
          </mxGeometry>
        </mxCell>
        <mxCell id="rjGoQQl5afYNW5GgnNFJ-76" style="edgeStyle=orthogonalEdgeStyle;rounded=0;orthogonalLoop=1;jettySize=auto;html=1;entryX=0.5;entryY=1;entryDx=0;entryDy=0;endFill=0;" edge="1" parent="1" source="rjGoQQl5afYNW5GgnNFJ-59" target="rjGoQQl5afYNW5GgnNFJ-7">
          <mxGeometry relative="1" as="geometry" />
        </mxCell>
        <mxCell id="rjGoQQl5afYNW5GgnNFJ-59" value="Addressbook" style="swimlane;fontStyle=0;childLayout=stackLayout;horizontal=1;startSize=26;fillColor=none;horizontalStack=0;resizeParent=1;resizeParentMax=0;resizeLast=0;collapsible=1;marginBottom=0;html=1;labelBackgroundColor=none;" vertex="1" parent="1">
          <mxGeometry x="622" y="325" width="140" height="260" as="geometry" />
        </mxCell>
        <mxCell id="rjGoQQl5afYNW5GgnNFJ-61" value="+ get_records()" style="text;strokeColor=none;fillColor=none;align=left;verticalAlign=top;spacingLeft=4;spacingRight=4;overflow=hidden;rotatable=0;points=[[0,0.5],[1,0.5]];portConstraint=eastwest;whiteSpace=wrap;html=1;labelBackgroundColor=none;" vertex="1" parent="rjGoQQl5afYNW5GgnNFJ-59">
          <mxGeometry y="26" width="140" height="26" as="geometry" />
        </mxCell>
        <mxCell id="rjGoQQl5afYNW5GgnNFJ-60" value="+ add_record()" style="text;strokeColor=none;fillColor=none;align=left;verticalAlign=top;spacingLeft=4;spacingRight=4;overflow=hidden;rotatable=0;points=[[0,0.5],[1,0.5]];portConstraint=eastwest;whiteSpace=wrap;html=1;labelBackgroundColor=none;" vertex="1" parent="rjGoQQl5afYNW5GgnNFJ-59">
          <mxGeometry y="52" width="140" height="26" as="geometry" />
        </mxCell>
        <mxCell id="rjGoQQl5afYNW5GgnNFJ-62" value="+ save_address_book()&lt;br&gt;&lt;br&gt;+ show_record()&lt;br&gt;&lt;br&gt;+ load_address_book()&lt;br&gt;&lt;br&gt;+ show()&lt;br&gt;&lt;br&gt;+ __iter__()&lt;br&gt;&lt;br&gt;+ __next__()" style="text;strokeColor=none;fillColor=none;align=left;verticalAlign=top;spacingLeft=4;spacingRight=4;overflow=hidden;rotatable=0;points=[[0,0.5],[1,0.5]];portConstraint=eastwest;whiteSpace=wrap;html=1;labelBackgroundColor=none;" vertex="1" parent="rjGoQQl5afYNW5GgnNFJ-59">
          <mxGeometry y="78" width="140" height="182" as="geometry" />
        </mxCell>
        <mxCell id="rjGoQQl5afYNW5GgnNFJ-77" value="" style="endArrow=classic;html=1;rounded=0;entryX=0.52;entryY=1.046;entryDx=0;entryDy=0;entryPerimeter=0;endFill=0;" edge="1" parent="1" target="rjGoQQl5afYNW5GgnNFJ-24">
          <mxGeometry width="50" height="50" relative="1" as="geometry">
            <mxPoint x="303" y="110" as="sourcePoint" />
            <mxPoint x="330" y="120" as="targetPoint" />
          </mxGeometry>
        </mxCell>
        <mxCell id="rjGoQQl5afYNW5GgnNFJ-78" value="" style="endArrow=classic;html=1;rounded=0;entryX=0.5;entryY=0;entryDx=0;entryDy=0;" edge="1" parent="1" target="rjGoQQl5afYNW5GgnNFJ-45">
          <mxGeometry width="50" height="50" relative="1" as="geometry">
            <mxPoint x="320" y="240" as="sourcePoint" />
            <mxPoint x="330" y="320" as="targetPoint" />
            <Array as="points">
              <mxPoint x="320" y="260" />
              <mxPoint x="205" y="260" />
            </Array>
          </mxGeometry>
        </mxCell>
        <mxCell id="rjGoQQl5afYNW5GgnNFJ-79" value="" style="endArrow=classic;html=1;rounded=0;entryX=0.25;entryY=0;entryDx=0;entryDy=0;exitX=0.677;exitY=-0.002;exitDx=0;exitDy=0;exitPerimeter=0;" edge="1" parent="1" source="rjGoQQl5afYNW5GgnNFJ-45" target="rjGoQQl5afYNW5GgnNFJ-59">
          <mxGeometry width="50" height="50" relative="1" as="geometry">
            <mxPoint x="230" y="270" as="sourcePoint" />
            <mxPoint x="330" y="320" as="targetPoint" />
            <Array as="points">
              <mxPoint x="228" y="270" />
              <mxPoint x="300" y="270" />
              <mxPoint x="360" y="270" />
              <mxPoint x="657" y="270" />
            </Array>
          </mxGeometry>
        </mxCell>
      </root>
    </mxGraphModel>
  </diagram>
</mxfile>
